<?xml version="1.0" encoding="UTF-8" ?>
<svg version="1.1" width="80" height="80" xmlns="http://www.w3.org/2000/svg" shape-rendering="crispEdges">
<rect x="64" y="13" width="1" height="1" fill="#FFFFFF" />
<rect x="65" y="13" width="1" height="1" fill="#FFFFFF" />
<rect x="66" y="13" width="1" height="1" fill="#FFFFFF" />
<rect x="67" y="13" width="1" height="1" fill="#FFFFFF" />
<rect x="68" y="13" width="1" height="1" fill="#FFFFFF" />
<rect x="69" y="13" width="1" height="1" fill="#FFFFFF" />
<rect x="70" y="13" width="1" height="1" fill="#FFFFFF" />
<rect x="71" y="13" width="1" height="1" fill="#FFFFFF" />
<rect x="72" y="13" width="1" height="1" fill="#FFFFFF" />
<rect x="73" y="13" width="1" height="1" fill="#FFFFFF" />
<rect x="74" y="13" width="1" height="1" fill="#FFFFFF" />
<rect x="75" y="13" width="1" height="1" fill="#FFFFFF" />
<rect x="76" y="13" width="1" height="1" fill="#FFFFFF" />
<rect x="77" y="13" width="1" height="1" fill="#FFFFFF" />
<rect x="78" y="13" width="1" height="1" fill="#FFFFFF" />
<rect x="79" y="13" width="1" height="1" fill="#FFFFFF" />
<rect x="64" y="14" width="1" height="1" fill="#FFFFFF" />
<rect x="79" y="14" width="1" height="1" fill="#FFFFFF" />
<rect x="64" y="15" width="1" height="1" fill="#FFFFFF" />
<rect x="79" y="15" width="1" height="1" fill="#FFFFFF" />
<rect x="0" y="16" width="1" height="1" fill="#FFFFFF" />
<rect x="1" y="16" width="1" height="1" fill="#FFFFFF" />
<rect x="2" y="16" width="1" height="1" fill="#FFFFFF" />
<rect x="3" y="16" width="1" height="1" fill="#FFFFFF" />
<rect x="4" y="16" width="1" height="1" fill="#FFFFFF" />
<rect x="5" y="16" width="1" height="1" fill="#FFFFFF" />
<rect x="6" y="16" width="1" height="1" fill="#FFFFFF" />
<rect x="7" y="16" width="1" height="1" fill="#FFFFFF" />
<rect x="8" y="16" width="1" height="1" fill="#FFFFFF" />
<rect x="9" y="16" width="1" height="1" fill="#FFFFFF" />
<rect x="10" y="16" width="1" height="1" fill="#FFFFFF" />
<rect x="11" y="16" width="1" height="1" fill="#FFFFFF" />
<rect x="12" y="16" width="1" height="1" fill="#FFFFFF" />
<rect x="13" y="16" width="1" height="1" fill="#FFFFFF" />
<rect x="14" y="16" width="1" height="1" fill="#FFFFFF" />
<rect x="15" y="16" width="1" height="1" fill="#FFFFFF" />
<rect x="16" y="16" width="1" height="1" fill="#FFFFFF" />
<rect x="17" y="16" width="1" height="1" fill="#FFFFFF" />
<rect x="18" y="16" width="1" height="1" fill="#FFFFFF" />
<rect x="19" y="16" width="1" height="1" fill="#FFFFFF" />
<rect x="20" y="16" width="1" height="1" fill="#FFFFFF" />
<rect x="21" y="16" width="1" height="1" fill="#FFFFFF" />
<rect x="22" y="16" width="1" height="1" fill="#FFFFFF" />
<rect x="23" y="16" width="1" height="1" fill="#FFFFFF" />
<rect x="24" y="16" width="1" height="1" fill="#FFFFFF" />
<rect x="25" y="16" width="1" height="1" fill="#FFFFFF" />
<rect x="26" y="16" width="1" height="1" fill="#FFFFFF" />
<rect x="27" y="16" width="1" height="1" fill="#FFFFFF" />
<rect x="28" y="16" width="1" height="1" fill="#FFFFFF" />
<rect x="29" y="16" width="1" height="1" fill="#FFFFFF" />
<rect x="30" y="16" width="1" height="1" fill="#FFFFFF" />
<rect x="31" y="16" width="1" height="1" fill="#FFFFFF" />
<rect x="32" y="16" width="1" height="1" fill="#FFFFFF" />
<rect x="33" y="16" width="1" height="1" fill="#FFFFFF" />
<rect x="34" y="16" width="1" height="1" fill="#FFFFFF" />
<rect x="35" y="16" width="1" height="1" fill="#FFFFFF" />
<rect x="36" y="16" width="1" height="1" fill="#FFFFFF" />
<rect x="37" y="16" width="1" height="1" fill="#FFFFFF" />
<rect x="38" y="16" width="1" height="1" fill="#FFFFFF" />
<rect x="39" y="16" width="1" height="1" fill="#FFFFFF" />
<rect x="40" y="16" width="1" height="1" fill="#FFFFFF" />
<rect x="41" y="16" width="1" height="1" fill="#FFFFFF" />
<rect x="42" y="16" width="1" height="1" fill="#FFFFFF" />
<rect x="43" y="16" width="1" height="1" fill="#FFFFFF" />
<rect x="44" y="16" width="1" height="1" fill="#FFFFFF" />
<rect x="45" y="16" width="1" height="1" fill="#FFFFFF" />
<rect x="46" y="16" width="1" height="1" fill="#FFFFFF" />
<rect x="47" y="16" width="1" height="1" fill="#FFFFFF" />
<rect x="48" y="16" width="1" height="1" fill="#FFFFFF" />
<rect x="49" y="16" width="1" height="1" fill="#FFFFFF" />
<rect x="50" y="16" width="1" height="1" fill="#FFFFFF" />
<rect x="51" y="16" width="1" height="1" fill="#FFFFFF" />
<rect x="52" y="16" width="1" height="1" fill="#FFFFFF" />
<rect x="53" y="16" width="1" height="1" fill="#FFFFFF" />
<rect x="54" y="16" width="1" height="1" fill="#FFFFFF" />
<rect x="55" y="16" width="1" height="1" fill="#FFFFFF" />
<rect x="56" y="16" width="1" height="1" fill="#FFFFFF" />
<rect x="57" y="16" width="1" height="1" fill="#FFFFFF" />
<rect x="58" y="16" width="1" height="1" fill="#FFFFFF" />
<rect x="59" y="16" width="1" height="1" fill="#FFFFFF" />
<rect x="60" y="16" width="1" height="1" fill="#FFFFFF" />
<rect x="61" y="16" width="1" height="1" fill="#FFFFFF" />
<rect x="62" y="16" width="1" height="1" fill="#FFFFFF" />
<rect x="63" y="16" width="1" height="1" fill="#FFFFFF" />
<rect x="64" y="16" width="1" height="1" fill="#FFFFFF" />
<rect x="65" y="16" width="1" height="1" fill="#FFFFFF" />
<rect x="66" y="16" width="1" height="1" fill="#FFFFFF" />
<rect x="67" y="16" width="1" height="1" fill="#FFFFFF" />
<rect x="68" y="16" width="1" height="1" fill="#FFFFFF" />
<rect x="69" y="16" width="1" height="1" fill="#FFFFFF" />
<rect x="70" y="16" width="1" height="1" fill="#FFFFFF" />
<rect x="71" y="16" width="1" height="1" fill="#FFFFFF" />
<rect x="72" y="16" width="1" height="1" fill="#FFFFFF" />
<rect x="73" y="16" width="1" height="1" fill="#FFFFFF" />
<rect x="74" y="16" width="1" height="1" fill="#FFFFFF" />
<rect x="75" y="16" width="1" height="1" fill="#FFFFFF" />
<rect x="76" y="16" width="1" height="1" fill="#FFFFFF" />
<rect x="77" y="16" width="1" height="1" fill="#FFFFFF" />
<rect x="78" y="16" width="1" height="1" fill="#FFFFFF" />
<rect x="79" y="16" width="1" height="1" fill="#FFFFFF" />
<rect x="0" y="17" width="1" height="1" fill="#FFFFFF" />
<rect x="79" y="17" width="1" height="1" fill="#FFFFFF" />
<rect x="0" y="18" width="1" height="1" fill="#FFFFFF" />
<rect x="79" y="18" width="1" height="1" fill="#FFFFFF" />
<rect x="0" y="19" width="1" height="1" fill="#FFFFFF" />
<rect x="79" y="19" width="1" height="1" fill="#FFFFFF" />
<rect x="0" y="20" width="1" height="1" fill="#FFFFFF" />
<rect x="79" y="20" width="1" height="1" fill="#FFFFFF" />
<rect x="0" y="21" width="1" height="1" fill="#FFFFFF" />
<rect x="79" y="21" width="1" height="1" fill="#FFFFFF" />
<rect x="0" y="22" width="1" height="1" fill="#FFFFFF" />
<rect x="60" y="22" width="1" height="1" fill="#FFFFFF" />
<rect x="61" y="22" width="1" height="1" fill="#FFFFFF" />
<rect x="62" y="22" width="1" height="1" fill="#FFFFFF" />
<rect x="63" y="22" width="1" height="1" fill="#FFFFFF" />
<rect x="64" y="22" width="1" height="1" fill="#FFFFFF" />
<rect x="65" y="22" width="1" height="1" fill="#FFFFFF" />
<rect x="66" y="22" width="1" height="1" fill="#FFFFFF" />
<rect x="67" y="22" width="1" height="1" fill="#FFFFFF" />
<rect x="68" y="22" width="1" height="1" fill="#FFFFFF" />
<rect x="69" y="22" width="1" height="1" fill="#FFFFFF" />
<rect x="70" y="22" width="1" height="1" fill="#FFFFFF" />
<rect x="71" y="22" width="1" height="1" fill="#FFFFFF" />
<rect x="72" y="22" width="1" height="1" fill="#FFFFFF" />
<rect x="73" y="22" width="1" height="1" fill="#FFFFFF" />
<rect x="74" y="22" width="1" height="1" fill="#FFFFFF" />
<rect x="75" y="22" width="1" height="1" fill="#FFFFFF" />
<rect x="76" y="22" width="1" height="1" fill="#FFFFFF" />
<rect x="79" y="22" width="1" height="1" fill="#FFFFFF" />
<rect x="0" y="23" width="1" height="1" fill="#FFFFFF" />
<rect x="60" y="23" width="1" height="1" fill="#FFFFFF" />
<rect x="76" y="23" width="1" height="1" fill="#FFFFFF" />
<rect x="79" y="23" width="1" height="1" fill="#FFFFFF" />
<rect x="0" y="24" width="1" height="1" fill="#FFFFFF" />
<rect x="60" y="24" width="1" height="1" fill="#FFFFFF" />
<rect x="76" y="24" width="1" height="1" fill="#FFFFFF" />
<rect x="79" y="24" width="1" height="1" fill="#FFFFFF" />
<rect x="0" y="25" width="1" height="1" fill="#FFFFFF" />
<rect x="60" y="25" width="1" height="1" fill="#FFFFFF" />
<rect x="76" y="25" width="1" height="1" fill="#FFFFFF" />
<rect x="79" y="25" width="1" height="1" fill="#FFFFFF" />
<rect x="0" y="26" width="1" height="1" fill="#FFFFFF" />
<rect x="60" y="26" width="1" height="1" fill="#FFFFFF" />
<rect x="61" y="26" width="1" height="1" fill="#FFFFFF" />
<rect x="62" y="26" width="1" height="1" fill="#FFFFFF" />
<rect x="63" y="26" width="1" height="1" fill="#FFFFFF" />
<rect x="64" y="26" width="1" height="1" fill="#FFFFFF" />
<rect x="65" y="26" width="1" height="1" fill="#FFFFFF" />
<rect x="66" y="26" width="1" height="1" fill="#FFFFFF" />
<rect x="67" y="26" width="1" height="1" fill="#FFFFFF" />
<rect x="68" y="26" width="1" height="1" fill="#FFFFFF" />
<rect x="69" y="26" width="1" height="1" fill="#FFFFFF" />
<rect x="70" y="26" width="1" height="1" fill="#FFFFFF" />
<rect x="71" y="26" width="1" height="1" fill="#FFFFFF" />
<rect x="72" y="26" width="1" height="1" fill="#FFFFFF" />
<rect x="73" y="26" width="1" height="1" fill="#FFFFFF" />
<rect x="74" y="26" width="1" height="1" fill="#FFFFFF" />
<rect x="75" y="26" width="1" height="1" fill="#FFFFFF" />
<rect x="76" y="26" width="1" height="1" fill="#FFFFFF" />
<rect x="79" y="26" width="1" height="1" fill="#FFFFFF" />
<rect x="0" y="27" width="1" height="1" fill="#FFFFFF" />
<rect x="79" y="27" width="1" height="1" fill="#FFFFFF" />
<rect x="0" y="28" width="1" height="1" fill="#FFFFFF" />
<rect x="79" y="28" width="1" height="1" fill="#FFFFFF" />
<rect x="0" y="29" width="1" height="1" fill="#FFFFFF" />
<rect x="79" y="29" width="1" height="1" fill="#FFFFFF" />
<rect x="0" y="30" width="1" height="1" fill="#FFFFFF" />
<rect x="79" y="30" width="1" height="1" fill="#FFFFFF" />
<rect x="0" y="31" width="1" height="1" fill="#FFFFFF" />
<rect x="79" y="31" width="1" height="1" fill="#FFFFFF" />
<rect x="0" y="32" width="1" height="1" fill="#FFFFFF" />
<rect x="36" y="32" width="1" height="1" fill="#FFFFFF" />
<rect x="37" y="32" width="1" height="1" fill="#FFFFFF" />
<rect x="38" y="32" width="1" height="1" fill="#FFFFFF" />
<rect x="39" y="32" width="1" height="1" fill="#FFFFFF" />
<rect x="40" y="32" width="1" height="1" fill="#FFFFFF" />
<rect x="41" y="32" width="1" height="1" fill="#FFFFFF" />
<rect x="42" y="32" width="1" height="1" fill="#FFFFFF" />
<rect x="43" y="32" width="1" height="1" fill="#FFFFFF" />
<rect x="44" y="32" width="1" height="1" fill="#FFFFFF" />
<rect x="79" y="32" width="1" height="1" fill="#FFFFFF" />
<rect x="0" y="33" width="1" height="1" fill="#FFFFFF" />
<rect x="33" y="33" width="1" height="1" fill="#FFFFFF" />
<rect x="34" y="33" width="1" height="1" fill="#FFFFFF" />
<rect x="35" y="33" width="1" height="1" fill="#FFFFFF" />
<rect x="36" y="33" width="1" height="1" fill="#FFFFFF" />
<rect x="44" y="33" width="1" height="1" fill="#FFFFFF" />
<rect x="45" y="33" width="1" height="1" fill="#FFFFFF" />
<rect x="46" y="33" width="1" height="1" fill="#FFFFFF" />
<rect x="47" y="33" width="1" height="1" fill="#FFFFFF" />
<rect x="79" y="33" width="1" height="1" fill="#FFFFFF" />
<rect x="0" y="34" width="1" height="1" fill="#FFFFFF" />
<rect x="31" y="34" width="1" height="1" fill="#FFFFFF" />
<rect x="32" y="34" width="1" height="1" fill="#FFFFFF" />
<rect x="33" y="34" width="1" height="1" fill="#FFFFFF" />
<rect x="47" y="34" width="1" height="1" fill="#FFFFFF" />
<rect x="48" y="34" width="1" height="1" fill="#FFFFFF" />
<rect x="49" y="34" width="1" height="1" fill="#FFFFFF" />
<rect x="79" y="34" width="1" height="1" fill="#FFFFFF" />
<rect x="0" y="35" width="1" height="1" fill="#FFFFFF" />
<rect x="30" y="35" width="1" height="1" fill="#FFFFFF" />
<rect x="31" y="35" width="1" height="1" fill="#FFFFFF" />
<rect x="49" y="35" width="1" height="1" fill="#FFFFFF" />
<rect x="50" y="35" width="1" height="1" fill="#FFFFFF" />
<rect x="79" y="35" width="1" height="1" fill="#FFFFFF" />
<rect x="0" y="36" width="1" height="1" fill="#FFFFFF" />
<rect x="29" y="36" width="1" height="1" fill="#FFFFFF" />
<rect x="30" y="36" width="1" height="1" fill="#FFFFFF" />
<rect x="50" y="36" width="1" height="1" fill="#FFFFFF" />
<rect x="51" y="36" width="1" height="1" fill="#FFFFFF" />
<rect x="79" y="36" width="1" height="1" fill="#FFFFFF" />
<rect x="0" y="37" width="1" height="1" fill="#FFFFFF" />
<rect x="28" y="37" width="1" height="1" fill="#FFFFFF" />
<rect x="29" y="37" width="1" height="1" fill="#FFFFFF" />
<rect x="51" y="37" width="1" height="1" fill="#FFFFFF" />
<rect x="52" y="37" width="1" height="1" fill="#FFFFFF" />
<rect x="79" y="37" width="1" height="1" fill="#FFFFFF" />
<rect x="0" y="38" width="1" height="1" fill="#FFFFFF" />
<rect x="27" y="38" width="1" height="1" fill="#FFFFFF" />
<rect x="28" y="38" width="1" height="1" fill="#FFFFFF" />
<rect x="52" y="38" width="1" height="1" fill="#FFFFFF" />
<rect x="53" y="38" width="1" height="1" fill="#FFFFFF" />
<rect x="79" y="38" width="1" height="1" fill="#FFFFFF" />
<rect x="0" y="39" width="1" height="1" fill="#FFFFFF" />
<rect x="26" y="39" width="1" height="1" fill="#FFFFFF" />
<rect x="27" y="39" width="1" height="1" fill="#FFFFFF" />
<rect x="53" y="39" width="1" height="1" fill="#FFFFFF" />
<rect x="54" y="39" width="1" height="1" fill="#FFFFFF" />
<rect x="79" y="39" width="1" height="1" fill="#FFFFFF" />
<rect x="0" y="40" width="1" height="1" fill="#FFFFFF" />
<rect x="26" y="40" width="1" height="1" fill="#FFFFFF" />
<rect x="54" y="40" width="1" height="1" fill="#FFFFFF" />
<rect x="79" y="40" width="1" height="1" fill="#FFFFFF" />
<rect x="0" y="41" width="1" height="1" fill="#FFFFFF" />
<rect x="25" y="41" width="1" height="1" fill="#FFFFFF" />
<rect x="26" y="41" width="1" height="1" fill="#FFFFFF" />
<rect x="54" y="41" width="1" height="1" fill="#FFFFFF" />
<rect x="55" y="41" width="1" height="1" fill="#FFFFFF" />
<rect x="79" y="41" width="1" height="1" fill="#FFFFFF" />
<rect x="0" y="42" width="1" height="1" fill="#FFFFFF" />
<rect x="25" y="42" width="1" height="1" fill="#FFFFFF" />
<rect x="55" y="42" width="1" height="1" fill="#FFFFFF" />
<rect x="79" y="42" width="1" height="1" fill="#FFFFFF" />
<rect x="0" y="43" width="1" height="1" fill="#FFFFFF" />
<rect x="25" y="43" width="1" height="1" fill="#FFFFFF" />
<rect x="55" y="43" width="1" height="1" fill="#FFFFFF" />
<rect x="79" y="43" width="1" height="1" fill="#FFFFFF" />
<rect x="0" y="44" width="1" height="1" fill="#FFFFFF" />
<rect x="24" y="44" width="1" height="1" fill="#FFFFFF" />
<rect x="25" y="44" width="1" height="1" fill="#FFFFFF" />
<rect x="55" y="44" width="1" height="1" fill="#FFFFFF" />
<rect x="56" y="44" width="1" height="1" fill="#FFFFFF" />
<rect x="79" y="44" width="1" height="1" fill="#FFFFFF" />
<rect x="0" y="45" width="1" height="1" fill="#FFFFFF" />
<rect x="24" y="45" width="1" height="1" fill="#FFFFFF" />
<rect x="56" y="45" width="1" height="1" fill="#FFFFFF" />
<rect x="79" y="45" width="1" height="1" fill="#FFFFFF" />
<rect x="0" y="46" width="1" height="1" fill="#FFFFFF" />
<rect x="24" y="46" width="1" height="1" fill="#FFFFFF" />
<rect x="56" y="46" width="1" height="1" fill="#FFFFFF" />
<rect x="79" y="46" width="1" height="1" fill="#FFFFFF" />
<rect x="0" y="47" width="1" height="1" fill="#FFFFFF" />
<rect x="24" y="47" width="1" height="1" fill="#FFFFFF" />
<rect x="56" y="47" width="1" height="1" fill="#FFFFFF" />
<rect x="79" y="47" width="1" height="1" fill="#FFFFFF" />
<rect x="0" y="48" width="1" height="1" fill="#FFFFFF" />
<rect x="24" y="48" width="1" height="1" fill="#FFFFFF" />
<rect x="56" y="48" width="1" height="1" fill="#FFFFFF" />
<rect x="79" y="48" width="1" height="1" fill="#FFFFFF" />
<rect x="0" y="49" width="1" height="1" fill="#FFFFFF" />
<rect x="24" y="49" width="1" height="1" fill="#FFFFFF" />
<rect x="56" y="49" width="1" height="1" fill="#FFFFFF" />
<rect x="79" y="49" width="1" height="1" fill="#FFFFFF" />
<rect x="0" y="50" width="1" height="1" fill="#FFFFFF" />
<rect x="24" y="50" width="1" height="1" fill="#FFFFFF" />
<rect x="56" y="50" width="1" height="1" fill="#FFFFFF" />
<rect x="79" y="50" width="1" height="1" fill="#FFFFFF" />
<rect x="0" y="51" width="1" height="1" fill="#FFFFFF" />
<rect x="24" y="51" width="1" height="1" fill="#FFFFFF" />
<rect x="56" y="51" width="1" height="1" fill="#FFFFFF" />
<rect x="79" y="51" width="1" height="1" fill="#FFFFFF" />
<rect x="0" y="52" width="1" height="1" fill="#FFFFFF" />
<rect x="24" y="52" width="1" height="1" fill="#FFFFFF" />
<rect x="25" y="52" width="1" height="1" fill="#FFFFFF" />
<rect x="55" y="52" width="1" height="1" fill="#FFFFFF" />
<rect x="56" y="52" width="1" height="1" fill="#FFFFFF" />
<rect x="79" y="52" width="1" height="1" fill="#FFFFFF" />
<rect x="0" y="53" width="1" height="1" fill="#FFFFFF" />
<rect x="25" y="53" width="1" height="1" fill="#FFFFFF" />
<rect x="55" y="53" width="1" height="1" fill="#FFFFFF" />
<rect x="79" y="53" width="1" height="1" fill="#FFFFFF" />
<rect x="0" y="54" width="1" height="1" fill="#FFFFFF" />
<rect x="25" y="54" width="1" height="1" fill="#FFFFFF" />
<rect x="55" y="54" width="1" height="1" fill="#FFFFFF" />
<rect x="79" y="54" width="1" height="1" fill="#FFFFFF" />
<rect x="0" y="55" width="1" height="1" fill="#FFFFFF" />
<rect x="25" y="55" width="1" height="1" fill="#FFFFFF" />
<rect x="26" y="55" width="1" height="1" fill="#FFFFFF" />
<rect x="54" y="55" width="1" height="1" fill="#FFFFFF" />
<rect x="55" y="55" width="1" height="1" fill="#FFFFFF" />
<rect x="79" y="55" width="1" height="1" fill="#FFFFFF" />
<rect x="0" y="56" width="1" height="1" fill="#FFFFFF" />
<rect x="26" y="56" width="1" height="1" fill="#FFFFFF" />
<rect x="54" y="56" width="1" height="1" fill="#FFFFFF" />
<rect x="79" y="56" width="1" height="1" fill="#FFFFFF" />
<rect x="0" y="57" width="1" height="1" fill="#FFFFFF" />
<rect x="26" y="57" width="1" height="1" fill="#FFFFFF" />
<rect x="27" y="57" width="1" height="1" fill="#FFFFFF" />
<rect x="53" y="57" width="1" height="1" fill="#FFFFFF" />
<rect x="54" y="57" width="1" height="1" fill="#FFFFFF" />
<rect x="79" y="57" width="1" height="1" fill="#FFFFFF" />
<rect x="0" y="58" width="1" height="1" fill="#FFFFFF" />
<rect x="27" y="58" width="1" height="1" fill="#FFFFFF" />
<rect x="28" y="58" width="1" height="1" fill="#FFFFFF" />
<rect x="52" y="58" width="1" height="1" fill="#FFFFFF" />
<rect x="53" y="58" width="1" height="1" fill="#FFFFFF" />
<rect x="79" y="58" width="1" height="1" fill="#FFFFFF" />
<rect x="0" y="59" width="1" height="1" fill="#FFFFFF" />
<rect x="28" y="59" width="1" height="1" fill="#FFFFFF" />
<rect x="29" y="59" width="1" height="1" fill="#FFFFFF" />
<rect x="51" y="59" width="1" height="1" fill="#FFFFFF" />
<rect x="52" y="59" width="1" height="1" fill="#FFFFFF" />
<rect x="79" y="59" width="1" height="1" fill="#FFFFFF" />
<rect x="0" y="60" width="1" height="1" fill="#FFFFFF" />
<rect x="29" y="60" width="1" height="1" fill="#FFFFFF" />
<rect x="30" y="60" width="1" height="1" fill="#FFFFFF" />
<rect x="50" y="60" width="1" height="1" fill="#FFFFFF" />
<rect x="51" y="60" width="1" height="1" fill="#FFFFFF" />
<rect x="79" y="60" width="1" height="1" fill="#FFFFFF" />
<rect x="0" y="61" width="1" height="1" fill="#FFFFFF" />
<rect x="30" y="61" width="1" height="1" fill="#FFFFFF" />
<rect x="31" y="61" width="1" height="1" fill="#FFFFFF" />
<rect x="49" y="61" width="1" height="1" fill="#FFFFFF" />
<rect x="50" y="61" width="1" height="1" fill="#FFFFFF" />
<rect x="79" y="61" width="1" height="1" fill="#FFFFFF" />
<rect x="0" y="62" width="1" height="1" fill="#FFFFFF" />
<rect x="31" y="62" width="1" height="1" fill="#FFFFFF" />
<rect x="32" y="62" width="1" height="1" fill="#FFFFFF" />
<rect x="33" y="62" width="1" height="1" fill="#FFFFFF" />
<rect x="47" y="62" width="1" height="1" fill="#FFFFFF" />
<rect x="48" y="62" width="1" height="1" fill="#FFFFFF" />
<rect x="49" y="62" width="1" height="1" fill="#FFFFFF" />
<rect x="79" y="62" width="1" height="1" fill="#FFFFFF" />
<rect x="0" y="63" width="1" height="1" fill="#FFFFFF" />
<rect x="33" y="63" width="1" height="1" fill="#FFFFFF" />
<rect x="34" y="63" width="1" height="1" fill="#FFFFFF" />
<rect x="35" y="63" width="1" height="1" fill="#FFFFFF" />
<rect x="36" y="63" width="1" height="1" fill="#FFFFFF" />
<rect x="44" y="63" width="1" height="1" fill="#FFFFFF" />
<rect x="45" y="63" width="1" height="1" fill="#FFFFFF" />
<rect x="46" y="63" width="1" height="1" fill="#FFFFFF" />
<rect x="47" y="63" width="1" height="1" fill="#FFFFFF" />
<rect x="79" y="63" width="1" height="1" fill="#FFFFFF" />
<rect x="0" y="64" width="1" height="1" fill="#FFFFFF" />
<rect x="35" y="64" width="1" height="1" fill="#FFFFFF" />
<rect x="36" y="64" width="1" height="1" fill="#FFFFFF" />
<rect x="37" y="64" width="1" height="1" fill="#FFFFFF" />
<rect x="38" y="64" width="1" height="1" fill="#FFFFFF" />
<rect x="39" y="64" width="1" height="1" fill="#FFFFFF" />
<rect x="40" y="64" width="1" height="1" fill="#FFFFFF" />
<rect x="41" y="64" width="1" height="1" fill="#FFFFFF" />
<rect x="42" y="64" width="1" height="1" fill="#FFFFFF" />
<rect x="43" y="64" width="1" height="1" fill="#FFFFFF" />
<rect x="44" y="64" width="1" height="1" fill="#FFFFFF" />
<rect x="79" y="64" width="1" height="1" fill="#FFFFFF" />
<rect x="0" y="65" width="1" height="1" fill="#FFFFFF" />
<rect x="79" y="65" width="1" height="1" fill="#FFFFFF" />
<rect x="0" y="66" width="1" height="1" fill="#FFFFFF" />
<rect x="79" y="66" width="1" height="1" fill="#FFFFFF" />
<rect x="0" y="67" width="1" height="1" fill="#FFFFFF" />
<rect x="79" y="67" width="1" height="1" fill="#FFFFFF" />
<rect x="0" y="68" width="1" height="1" fill="#FFFFFF" />
<rect x="79" y="68" width="1" height="1" fill="#FFFFFF" />
<rect x="0" y="69" width="1" height="1" fill="#FFFFFF" />
<rect x="79" y="69" width="1" height="1" fill="#FFFFFF" />
<rect x="0" y="70" width="1" height="1" fill="#FFFFFF" />
<rect x="79" y="70" width="1" height="1" fill="#FFFFFF" />
<rect x="0" y="71" width="1" height="1" fill="#FFFFFF" />
<rect x="79" y="71" width="1" height="1" fill="#FFFFFF" />
<rect x="0" y="72" width="1" height="1" fill="#FFFFFF" />
<rect x="79" y="72" width="1" height="1" fill="#FFFFFF" />
<rect x="0" y="73" width="1" height="1" fill="#FFFFFF" />
<rect x="79" y="73" width="1" height="1" fill="#FFFFFF" />
<rect x="0" y="74" width="1" height="1" fill="#FFFFFF" />
<rect x="79" y="74" width="1" height="1" fill="#FFFFFF" />
<rect x="0" y="75" width="1" height="1" fill="#FFFFFF" />
<rect x="79" y="75" width="1" height="1" fill="#FFFFFF" />
<rect x="0" y="76" width="1" height="1" fill="#FFFFFF" />
<rect x="79" y="76" width="1" height="1" fill="#FFFFFF" />
<rect x="0" y="77" width="1" height="1" fill="#FFFFFF" />
<rect x="79" y="77" width="1" height="1" fill="#FFFFFF" />
<rect x="0" y="78" width="1" height="1" fill="#FFFFFF" />
<rect x="79" y="78" width="1" height="1" fill="#FFFFFF" />
<rect x="0" y="79" width="1" height="1" fill="#FFFFFF" />
<rect x="1" y="79" width="1" height="1" fill="#FFFFFF" />
<rect x="2" y="79" width="1" height="1" fill="#FFFFFF" />
<rect x="3" y="79" width="1" height="1" fill="#FFFFFF" />
<rect x="4" y="79" width="1" height="1" fill="#FFFFFF" />
<rect x="5" y="79" width="1" height="1" fill="#FFFFFF" />
<rect x="6" y="79" width="1" height="1" fill="#FFFFFF" />
<rect x="7" y="79" width="1" height="1" fill="#FFFFFF" />
<rect x="8" y="79" width="1" height="1" fill="#FFFFFF" />
<rect x="9" y="79" width="1" height="1" fill="#FFFFFF" />
<rect x="10" y="79" width="1" height="1" fill="#FFFFFF" />
<rect x="11" y="79" width="1" height="1" fill="#FFFFFF" />
<rect x="12" y="79" width="1" height="1" fill="#FFFFFF" />
<rect x="13" y="79" width="1" height="1" fill="#FFFFFF" />
<rect x="14" y="79" width="1" height="1" fill="#FFFFFF" />
<rect x="15" y="79" width="1" height="1" fill="#FFFFFF" />
<rect x="16" y="79" width="1" height="1" fill="#FFFFFF" />
<rect x="17" y="79" width="1" height="1" fill="#FFFFFF" />
<rect x="18" y="79" width="1" height="1" fill="#FFFFFF" />
<rect x="19" y="79" width="1" height="1" fill="#FFFFFF" />
<rect x="20" y="79" width="1" height="1" fill="#FFFFFF" />
<rect x="21" y="79" width="1" height="1" fill="#FFFFFF" />
<rect x="22" y="79" width="1" height="1" fill="#FFFFFF" />
<rect x="23" y="79" width="1" height="1" fill="#FFFFFF" />
<rect x="24" y="79" width="1" height="1" fill="#FFFFFF" />
<rect x="25" y="79" width="1" height="1" fill="#FFFFFF" />
<rect x="26" y="79" width="1" height="1" fill="#FFFFFF" />
<rect x="27" y="79" width="1" height="1" fill="#FFFFFF" />
<rect x="28" y="79" width="1" height="1" fill="#FFFFFF" />
<rect x="29" y="79" width="1" height="1" fill="#FFFFFF" />
<rect x="30" y="79" width="1" height="1" fill="#FFFFFF" />
<rect x="31" y="79" width="1" height="1" fill="#FFFFFF" />
<rect x="32" y="79" width="1" height="1" fill="#FFFFFF" />
<rect x="33" y="79" width="1" height="1" fill="#FFFFFF" />
<rect x="34" y="79" width="1" height="1" fill="#FFFFFF" />
<rect x="35" y="79" width="1" height="1" fill="#FFFFFF" />
<rect x="36" y="79" width="1" height="1" fill="#FFFFFF" />
<rect x="37" y="79" width="1" height="1" fill="#FFFFFF" />
<rect x="38" y="79" width="1" height="1" fill="#FFFFFF" />
<rect x="39" y="79" width="1" height="1" fill="#FFFFFF" />
<rect x="40" y="79" width="1" height="1" fill="#FFFFFF" />
<rect x="41" y="79" width="1" height="1" fill="#FFFFFF" />
<rect x="42" y="79" width="1" height="1" fill="#FFFFFF" />
<rect x="43" y="79" width="1" height="1" fill="#FFFFFF" />
<rect x="44" y="79" width="1" height="1" fill="#FFFFFF" />
<rect x="45" y="79" width="1" height="1" fill="#FFFFFF" />
<rect x="46" y="79" width="1" height="1" fill="#FFFFFF" />
<rect x="47" y="79" width="1" height="1" fill="#FFFFFF" />
<rect x="48" y="79" width="1" height="1" fill="#FFFFFF" />
<rect x="49" y="79" width="1" height="1" fill="#FFFFFF" />
<rect x="50" y="79" width="1" height="1" fill="#FFFFFF" />
<rect x="51" y="79" width="1" height="1" fill="#FFFFFF" />
<rect x="52" y="79" width="1" height="1" fill="#FFFFFF" />
<rect x="53" y="79" width="1" height="1" fill="#FFFFFF" />
<rect x="54" y="79" width="1" height="1" fill="#FFFFFF" />
<rect x="55" y="79" width="1" height="1" fill="#FFFFFF" />
<rect x="56" y="79" width="1" height="1" fill="#FFFFFF" />
<rect x="57" y="79" width="1" height="1" fill="#FFFFFF" />
<rect x="58" y="79" width="1" height="1" fill="#FFFFFF" />
<rect x="59" y="79" width="1" height="1" fill="#FFFFFF" />
<rect x="60" y="79" width="1" height="1" fill="#FFFFFF" />
<rect x="61" y="79" width="1" height="1" fill="#FFFFFF" />
<rect x="62" y="79" width="1" height="1" fill="#FFFFFF" />
<rect x="63" y="79" width="1" height="1" fill="#FFFFFF" />
<rect x="64" y="79" width="1" height="1" fill="#FFFFFF" />
<rect x="65" y="79" width="1" height="1" fill="#FFFFFF" />
<rect x="66" y="79" width="1" height="1" fill="#FFFFFF" />
<rect x="67" y="79" width="1" height="1" fill="#FFFFFF" />
<rect x="68" y="79" width="1" height="1" fill="#FFFFFF" />
<rect x="69" y="79" width="1" height="1" fill="#FFFFFF" />
<rect x="70" y="79" width="1" height="1" fill="#FFFFFF" />
<rect x="71" y="79" width="1" height="1" fill="#FFFFFF" />
<rect x="72" y="79" width="1" height="1" fill="#FFFFFF" />
<rect x="73" y="79" width="1" height="1" fill="#FFFFFF" />
<rect x="74" y="79" width="1" height="1" fill="#FFFFFF" />
<rect x="75" y="79" width="1" height="1" fill="#FFFFFF" />
<rect x="76" y="79" width="1" height="1" fill="#FFFFFF" />
<rect x="77" y="79" width="1" height="1" fill="#FFFFFF" />
<rect x="78" y="79" width="1" height="1" fill="#FFFFFF" />
<rect x="79" y="79" width="1" height="1" fill="#FFFFFF" />
</svg>